<?xml version="1.0" encoding="UTF-8" standalone="no"?>
<svg
   xmlns:dc="http://purl.org/dc/elements/1.1/"
   xmlns:cc="http://creativecommons.org/ns#"
   xmlns:rdf="http://www.w3.org/1999/02/22-rdf-syntax-ns#"
   xmlns:svg="http://www.w3.org/2000/svg"
   xmlns="http://www.w3.org/2000/svg"
   version="1.1"
   id="svg2"
   viewBox="0 0 709.99999 554.97339"
   height="156.62582mm"
   width="200.37778mm">
  <defs
     id="defs4" />
  <metadata
     id="metadata7">
    <rdf:RDF>
      <cc:Work
         rdf:about="">
        <dc:format>image/svg+xml</dc:format>
        <dc:type
           rdf:resource="http://purl.org/dc/dcmitype/StillImage" />
        <dc:title></dc:title>
      </cc:Work>
    </rdf:RDF>
  </metadata>
  <g
     transform="translate(2.4999695,-246.46357)"
     id="layer1">
    <path
       id="rect4230"
       d="m 152.50003,614.85617 c -15.48699,0 -37.04793,-4.9123 -45,-6.791 l 0,0.1464 -6.17773,-1.496 c 0,0 -33.394466,-7.8594 -48.82227,-7.8594 -15.427802,0 -48.8222651,7.8594 -48.8222651,7.8594 l -6.1777344,1.496 0,-6.3554 0,-60.39065 5.3730469,0.4043 c 0,0 33.4602816,2.48633 49.6269526,2.48633 14.172143,0 38.43979,-1.7083 45,-2.17969 l 0,-100.71094 5.375,0.4043 c 0,0 33.43687,2.48633 49.625,2.48633 14.19076,0 38.44313,-1.70828 45,-2.17969 l 0,-100.71094 5.375,0.4043 c 0,0 33.43688,2.48633 49.625,2.48633 14.19075,0 38.44313,-1.70827 45,-2.17969 l 0,-95.71289 5.37695,0.40625 c 0,0 33.10176,2.47643 49.125,2.48633 16.35453,0.01 50.12696,-2.48633 50.12696,-2.48633 l 5.37109,-0.40039 0,95.70703 c 6.55687,0.47142 30.80925,2.17969 45,2.17969 16.18812,0 49.625,-2.48633 49.625,-2.48633 l 5.375,-0.4043 0,100.71094 c 6.55687,0.47142 30.80925,2.17969 45,2.17969 16.18812,0 49.625,-2.48633 49.625,-2.48633 l 5.375,-0.4043 0,100.71094 c 6.55687,0.47142 30.80925,2.17969 45,2.17969 16.18812,0 49.625,-2.48633 49.625,-2.48633 l 5.375,-0.4043 0,66.74605 -6.17773,-1.496 c 0,0 -33.39447,-7.8594 -48.82227,-7.8594 -15.4278,0 -48.82227,7.8594 -48.82227,7.8594 l -6.17773,1.496 0,-0.1464 c -7.95208,1.8787 -29.51301,6.791 -45,6.791 -15.48699,0 -37.04792,-4.9123 -45,-6.791 l 0,0.1464 -6.17773,-1.496 c 0,0 -33.39447,-7.8594 -48.82227,-7.8594 -15.4278,0 -48.82227,7.8594 -48.82227,7.8594 l -6.17773,1.496 0,-0.1464 c -7.95208,1.8787 -29.51301,6.791 -45,6.791 -15.48699,0 -37.04792,-4.9123 -45,-6.791 l 0,0.166 -6.17578,-1.5156 -0.0176,0 -0.004,0 c -0.007,0 -33.13464,-7.8984 -48.78906,-7.8554 -15.18323,0.042 -48.7353,7.8365 -48.80859,7.8535 -6e-5,0 -0.0273,0.01 -0.0274,0.01 l -0.0137,0 -0.0508,0.012 -6.11307,1.4628 0,-0.1269 c -7.95208,1.8787 -29.51301,6.791 -45,6.791 z m 0,-5.002 c 16.99673,0 50,-8 50,-8 0,0 33.23674,-7.9539 50,-8 17.2302,-0.047 50,8 50,8 0,0 33.00327,8 50,8 16.99673,0 50,-8 50,-8 0,0 33.00327,-8 50,-8 16.99673,0 50,8 50,8 0,0 33.00327,8 50,8 16.99673,0 50,-8 50,-8 0,0 33.00327,-8 50,-8 16.99673,0 50,8 50,8 l 0,-54.99998 c 0,0 -33.31251,2.5 -50,2.5 -16.68749,0 -50,-2.5 -50,-2.5 l 0,-100 c 0,0 -33.31251,2.5 -50,2.5 -16.68749,0 -50,-2.5 -50,-2.5 l 0,-100 c 0,0 -33.31251,2.5 -50,2.5 -16.68749,0 -50,-2.5 -50,-2.5 l 0,-95 c 0,0 -33.64605,2.5084 -50.5,2.5 -16.52103,-0.01 -49.5,-2.5 -49.5,-2.5 l 0,95 c 0,0 -33.31251,2.5 -50,2.5 -16.68749,0 -50,-2.5 -50,-2.5 l 0,100 c 0,0 -33.31251,2.5 -50,2.5 -16.68749,0 -50,-2.5 -50,-2.5 l 0,100 c 0,0 -33.333333,2.5 -50,2.5 -16.666667,0 -49.9999995,-2.5 -49.9999995,-2.5 l 0,54.99998 c 0,0 33.0032675,-8 49.9999995,-8 16.996733,0 50,8 50,8 0,0 33.00327,8 50,8 z m 0,-4.998 c -13.84472,0 -45,-7.0528 -45,-7.0528 l 0,-56.33785 0,-89.26367 c 0,0 30.27764,2.1543 45,2.1543 14.72236,0 50,-2.1543 50,-2.1543 l 0,144.60112 c 0,0 -36.15528,8.0532 -50,8.0532 z m 200,0 c -13.84472,0 -45,-7.0528 -45,-7.0528 l 0,-256.33785 0,-84.26172 c 0,0 29.94272,2.14235 44.49609,2.15235 l 0.002,0 c 14.89147,0.007 45.50195,-2.15821 45.50195,-2.15821 l 0,84.26758 0,256.33785 c 0,0 -31.15528,7.0528 -45,7.0528 z m 200,0 c -13.84472,0 -50,-8.0532 -50,-8.0532 l 0,-145.03995 c 0,0 35.27763,2.59313 50,2.59313 14.72237,0 45,-2.1543 45,-2.1543 l 0,89.26367 0,56.33785 c -5.66479,1.2989 -31.15528,7.0528 -45,7.0528 z m -345,-9.1992 0,-154.19145 0,-89.26367 c 0,0 30.27763,2.1543 45,2.1543 14.72237,0 50,-2.1543 50,-2.1543 l 0,244.56122 c 0,0 -34.34795,-7.9499 -50.01367,-7.9069 -15.30661,0.042 -44.98633,6.8008 -44.98633,6.8008 z m -199.9999995,-0.01 0,-43.44535 c 7.2869265,0.52879 30.2932795,2.1543 44.9999995,2.1543 14.70672,0 50,-2.4929 50,-2.4929 l 0,44.90005 c 0,0 -34.513008,-7.9071 -50,-7.9071 -15.486992,0 -37.047924,4.9123 -44.9999995,6.791 z m 394.9999995,1.1161 0,-245.30005 c 0,0 35.27763,2.8929 50,2.8929 14.72237,0 45,-2.1543 45,-2.1543 l 0,89.26367 0,154.18168 c 0,0 -29.51301,-6.791 -45,-6.791 -15.48699,0 -50,7.9071 -50,7.9071 z m 200,0 0,-45.00005 c 0,0 35.27763,2.5929 50,2.5929 14.72237,0 45,-2.1543 45,-2.1543 l 0,43.44535 c 0,0 -29.51301,-6.791 -45,-6.791 -15.48699,0 -50,7.9071 -50,7.9071 z"
       style="fill:#101010;fill-opacity:1;stroke:none;stroke-width:10;stroke-miterlimit:4;stroke-dasharray:none;stroke-opacity:1" />
    <g
       id="flowRoot4358"
       style="font-style:normal;font-variant:normal;font-weight:normal;font-stretch:normal;font-size:40px;line-height:125%;font-family:CopperplateGothicThirty-OneBC;-inkscape-font-specification:CopperplateGothicThirty-OneBC;letter-spacing:4.53000021px;word-spacing:0px;fill:#101010;fill-opacity:1;stroke:none;stroke-width:1px;stroke-linecap:butt;stroke-linejoin:miter;stroke-opacity:1"
       transform="matrix(1.1120806,0,0,1,-52.990949,486.08785)">
      <g
         id="flowRoot4256"
         style="font-style:normal;font-weight:normal;font-size:40px;line-height:125%;font-family:sans-serif;letter-spacing:0px;word-spacing:0px;fill:#000000;fill-opacity:1;stroke:none;stroke-width:1px;stroke-linecap:butt;stroke-linejoin:miter;stroke-opacity:1"
         transform="matrix(0.8992154,0,0,1,108.78466,-339.87577)">
        <path
           id="path4336"
           style="font-style:normal;font-variant:normal;font-weight:normal;font-stretch:normal;font-size:156.25px;line-height:62.99999952%;font-family:CopperplateGothicThirty-OneBC;-inkscape-font-specification:CopperplateGothicThirty-OneBC;text-align:center;letter-spacing:-11.93999958px;word-spacing:-0.30000001px;text-anchor:middle"
           d="m -70.423957,488.81861 q 4.0625,0 4.0625,2.34375 l 0,58.4375 q 0,2.34375 -4.0625,2.34375 l 0,2.8125 61.25,0 q 2.1875,0 3.28125,0.3125 1.09375,0.46875 1.09375,1.71875 l 2.8125,0 0,-16.875 -2.8125,0 q 0,3.28125 -4.375,3.28125 l -42.1875,0 0,-52.03125 q 0,-2.34375 3.59375,-2.34375 l 0,-2.8125 -22.65625,0 0,2.8125 z" />
        <path
           id="path4338"
           style="font-style:normal;font-variant:normal;font-weight:normal;font-stretch:normal;font-size:156.25px;line-height:62.99999952%;font-family:CopperplateGothicThirty-OneBC;-inkscape-font-specification:CopperplateGothicThirty-OneBC;text-align:center;letter-spacing:-11.93999958px;word-spacing:-0.30000001px;text-anchor:middle"
           d="m 30.548638,554.75611 0,-2.8125 q -4.375,0 -4.375,-2.34375 l 0,-58.4375 q 0,-2.34375 4.375,-2.34375 l 0,-2.8125 -23.7499997,0 0,2.8125 q 4.3749997,0 4.3749997,2.34375 l 0,58.4375 q 0,2.34375 -4.3749997,2.34375 l 0,2.8125 23.7499997,0 z" />
        <path
           id="path4340"
           style="font-style:normal;font-variant:normal;font-weight:normal;font-stretch:normal;font-size:156.25px;line-height:62.99999952%;font-family:CopperplateGothicThirty-OneBC;-inkscape-font-specification:CopperplateGothicThirty-OneBC;text-align:center;letter-spacing:-11.93999958px;word-spacing:-0.30000001px;text-anchor:middle"
           d="m 113.76245,490.69361 q -1.71875,1.25 -3.4375,1.25 -0.78125,0 -4.0625,-1.40625 -2.8125,-1.25 -5,-2.03125 -9.062498,-3.4375 -18.906248,-3.4375 -20.3125,0 -32.1875,9.53125 -11.875,9.375 -11.875,25.78125 0,16.40625 11.875,25.9375 11.875,9.375 32.1875,9.375 12.96875,0 22.187498,-3.125 9.375,-3.28125 14.21875,-6.71875 l 0,-1.875 q -1.5625,-0.625 -2.03125,-1.09375 -0.3125,-0.625 -0.3125,-2.03125 l 0,-14.84375 q 0,-2.8125 2.34375,-3.75 l 0,-2.8125 -30.624998,0 q -2.03125,0 -3.28125,-0.46875 -1.09375,-0.625 -1.25,-2.03125 l -2.8125,0 0,16.09375 2.8125,0 q 0.15625,-1.71875 1.40625,-2.5 1.25,-0.78125 3.125,-0.78125 l 16.093748,0 0,9.84375 q -4.687498,2.5 -10.624998,3.59375 -5.9375,0.9375 -13.125,0.9375 -4.84375,0 -9.6875,-1.25 -4.6875,-1.25 -8.75,-4.0625 -3.90625,-2.8125 -6.40625,-7.34375 -2.34375,-4.53125 -2.34375,-10.78125 0,-12.1875 7.96875,-18.125 8.125,-5.9375 20.625,-5.9375 4.21875,0 8.28125,0.9375 4.21875,0.78125 7.5,2.1875 3.437498,1.40625 5.312498,3.125 2.03125,1.5625 2.03125,2.96875 0,0.46875 -0.3125,1.71875 l 1.875,1.09375 9.0625,-17.03125 -1.875,-0.9375 z" />
        <path
           id="path4342"
           style="font-style:normal;font-variant:normal;font-weight:normal;font-stretch:normal;font-size:156.25px;line-height:62.99999952%;font-family:CopperplateGothicThirty-OneBC;-inkscape-font-specification:CopperplateGothicThirty-OneBC;text-align:center;letter-spacing:-11.93999958px;word-spacing:-0.30000001px;text-anchor:middle"
           d="m 189.2248,526.00611 0,23.59375 q 0,2.34375 -2.34375,2.34375 l 0,2.8125 19.6875,0 0,-2.8125 q -2.34375,0 -2.34375,-2.34375 l 0,-58.4375 q 0,-2.34375 2.34375,-2.34375 l 0,-2.8125 -19.6875,0 0,2.8125 q 2.34375,0 2.34375,2.34375 l 0,22.03125 -41.875,0 0,-22.03125 q 0,-2.34375 2.34375,-2.34375 l 0,-2.8125 -19.6875,0 0,2.8125 q 2.34375,0 2.34375,2.34375 l 0,58.4375 q 0,2.34375 -2.34375,2.34375 l 0,2.8125 19.6875,0 0,-2.8125 q -2.34375,0 -2.34375,-2.34375 l 0,-23.59375 41.875,0 z" />
        <path
           id="path4344"
           style="font-style:normal;font-variant:normal;font-weight:normal;font-stretch:normal;font-size:156.25px;line-height:62.99999952%;font-family:CopperplateGothicThirty-OneBC;-inkscape-font-specification:CopperplateGothicThirty-OneBC;text-align:center;letter-spacing:-11.93999958px;word-spacing:-0.30000001px;text-anchor:middle"
           d="m 237.9049,554.75611 20.15625,0 0,-2.8125 q -2.8125,0 -2.8125,-2.34375 l 0,-52.03125 20.3125,0 q 1.40625,0 2.34375,0.78125 1.09375,0.625 1.09375,1.875 l 2.8125,0 0,-17.96875 -2.8125,0 q 0,2.03125 -1.09375,2.96875 -0.9375,0.78125 -2.34375,0.78125 l -55.625,0 q -1.40625,0 -2.5,-0.78125 -0.9375,-0.9375 -0.9375,-2.96875 l -2.8125,0 0,17.96875 2.8125,0 q 0,-1.25 0.9375,-1.875 1.09375,-0.78125 2.5,-0.78125 l 20.3125,0 0,52.03125 q 0,2.34375 -2.34375,2.34375 l 0,2.8125 z" />
        <path
           id="path4346"
           style="font-style:normal;font-variant:normal;font-weight:normal;font-stretch:normal;font-size:156.25px;line-height:62.99999952%;font-family:CopperplateGothicThirty-OneBC;-inkscape-font-specification:CopperplateGothicThirty-OneBC;text-align:center;letter-spacing:-11.93999958px;word-spacing:-0.30000001px;text-anchor:middle"
           d="m 364.46465,554.75611 q 8.90625,0 15.3125,-2.8125 6.5625,-2.8125 10.625,-7.65625 4.0625,-4.84375 5.9375,-10.9375 2.03125,-6.09375 2.03125,-12.96875 0,-6.71875 -2.03125,-12.8125 -1.875,-6.09375 -6.25,-10.9375 -4.21875,-5 -10.78125,-7.8125 -6.5625,-2.8125 -15.46875,-2.8125 l -43.4375,0 0,2.8125 q 3.59375,0 3.59375,2.34375 l 0,58.4375 q 0,2.34375 -3.59375,2.34375 l 0,2.8125 44.0625,0 z m -25.46875,-57.1875 20.3125,0 q 5.78125,0 9.84375,0.625 4.0625,0.625 7.1875,2.96875 3.28125,2.1875 5.15625,6.71875 1.875,4.53125 1.875,12.03125 0,7.5 -1.875,12.1875 -1.875,4.6875 -5.15625,7.1875 -3.28125,2.34375 -7.34375,3.125 -4.0625,0.78125 -9.6875,0.78125 l -20.3125,0 0,-45.625 z" />
        <path
           id="path4348"
           style="font-style:normal;font-variant:normal;font-weight:normal;font-stretch:normal;font-size:156.25px;line-height:62.99999952%;font-family:CopperplateGothicThirty-OneBC;-inkscape-font-specification:CopperplateGothicThirty-OneBC;text-align:center;letter-spacing:-11.93999958px;word-spacing:-0.30000001px;text-anchor:middle"
           d="m 416.79467,554.75611 0,-2.8125 q -2.96875,0 -2.96875,-1.875 0,-0.9375 1.25,-3.59375 l 0.15625,-0.46875 4.375,-8.4375 33.4375,0 4.21875,8.90625 q 0,0 0.3125,0.625 0.78125,2.03125 0.78125,3.125 0,1.09375 -0.78125,1.71875 -0.78125,0.46875 -1.71875,0.46875 l 0,2.34375 22.1875,0 0,-2.8125 q -2.5,-0.625 -3.75,-2.96875 l -25.3125,-53.125 -0.78125,-1.71875 q -1.40625,-2.65625 -1.40625,-3.59375 0,-1.09375 1.25,-1.5625 0.15625,-0.15625 0.3125,-0.15625 l 0,-2.8125 -23.59375,0 0,2.8125 0.15625,0.15625 q 1.09375,0.46875 1.09375,1.5625 0,1.5625 -1.875,5.9375 l -0.15625,0.15625 -23.28125,50.78125 q -0.78125,1.71875 -2.03125,3.125 -1.09375,1.25 -2.8125,1.40625 l 0,2.8125 20.9375,0 z m 18.59375,-55 12.65625,26.25 -23.75,0 11.09375,-26.25 z" />
        <path
           id="path4350"
           style="font-style:normal;font-variant:normal;font-weight:normal;font-stretch:normal;font-size:156.25px;line-height:62.99999952%;font-family:CopperplateGothicThirty-OneBC;-inkscape-font-specification:CopperplateGothicThirty-OneBC;text-align:center;letter-spacing:-11.93999958px;word-spacing:-0.30000001px;text-anchor:middle"
           d="m 480.73602,486.00611 0,2.8125 q 2.8125,0 2.8125,2.34375 l 0,58.4375 q 0,2.34375 -2.8125,2.34375 l 0,2.8125 20.78125,0 0,-2.8125 q -1.09375,0 -2.03125,-0.625 -0.9375,-0.625 -0.9375,-1.71875 l 0,-22.34375 21.71875,0 12.34375,18.4375 q 2.34375,3.28125 2.34375,4.84375 0,1.40625 -2.03125,1.40625 l 0,2.8125 23.90625,0 0,-2.8125 q -3.90625,-1.09375 -5.9375,-3.90625 l -15.3125,-22.34375 q 7.5,-1.71875 12.65625,-6.5625 5.15625,-5 5.15625,-12.8125 0,-10.78125 -7.5,-15.46875 -7.5,-4.84375 -22.03125,-4.84375 l -43.125,0 z m 18.125,11.5625 24.6875,0 q 7.8125,0 11.5625,2.1875 3.75,2.1875 3.75,6.25 0,9.6875 -15.3125,9.6875 l -24.6875,0 0,-18.125 z" />
        <path
           id="path4352"
           style="font-style:normal;font-variant:normal;font-weight:normal;font-stretch:normal;font-size:156.25px;line-height:62.99999952%;font-family:CopperplateGothicThirty-OneBC;-inkscape-font-specification:CopperplateGothicThirty-OneBC;text-align:center;letter-spacing:-11.93999958px;word-spacing:-0.30000001px;text-anchor:middle"
           d="m 593.37853,522.41236 19.21875,23.4375 q 1.875,2.1875 2.65625,3.4375 0.78125,1.09375 0.78125,1.71875 0,0.9375 -1.71875,0.9375 l 0,2.8125 23.125,0 0,-2.8125 q -1.875,-0.46875 -3.75,-2.34375 -1.875,-1.875 -4.21875,-5 -0.3125,-0.3125 -0.46875,-0.46875 l -24.6875,-30.625 26.09375,-21.09375 q 1.875,-1.5625 3.125,-2.34375 1.25,-0.78125 2.5,-1.25 l 0,-2.8125 -25.78125,0 0,2.34375 q 0.78125,0 1.5625,0.46875 0.9375,0.46875 0.9375,1.25 0,0.78125 -4.375,4.53125 -4.375,3.59375 -14.0625,11.40625 -7.8125,6.25 -13.125,10.625 l 0,-25.46875 q 0,-2.34375 2.96875,-2.34375 l 0,-2.8125 -20.46875,0 0,2.8125 q 2.5,0 2.5,2.34375 l 0,58.4375 q 0,2.34375 -2.5,2.34375 l 0,2.8125 20.46875,0 0,-2.8125 q -2.96875,0 -2.96875,-2.34375 l 0,-17.5 12.1875,-9.6875 z" />
        <path
           id="path4354"
           style="font-style:normal;font-variant:normal;font-weight:normal;font-stretch:normal;font-size:156.25px;line-height:62.99999952%;font-family:CopperplateGothicThirty-OneBC;-inkscape-font-specification:CopperplateGothicThirty-OneBC;text-align:center;letter-spacing:-11.93999958px;word-spacing:-0.30000001px;text-anchor:middle"
           d="m 129.96469,587.25611 q 4.0625,0 4.0625,2.34375 l 0,58.4375 q 0,2.34375 -4.0625,2.34375 l 0,2.8125 61.25,0 q 2.1875,0 3.28125,0.3125 1.09375,0.46875 1.09375,1.71875 l 2.8125,0 0,-16.875 -2.8125,0 q 0,3.28125 -4.375,3.28125 l -42.1875,0 0,-52.03125 q 0,-2.34375 3.59375,-2.34375 l 0,-2.8125 -22.65625,0 0,2.8125 z" />
        <path
           id="path4356"
           style="font-style:normal;font-variant:normal;font-weight:normal;font-stretch:normal;font-size:156.25px;line-height:62.99999952%;font-family:CopperplateGothicThirty-OneBC;-inkscape-font-specification:CopperplateGothicThirty-OneBC;text-align:center;letter-spacing:-11.93999958px;word-spacing:-0.30000001px;text-anchor:middle"
           d="m 216.40603,653.19361 0,-2.8125 q -2.96875,0 -2.96875,-1.875 0,-0.9375 1.25,-3.59375 l 0.15625,-0.46875 4.375,-8.4375 33.4375,0 4.21875,8.90625 q 0,0 0.3125,0.625 0.78125,2.03125 0.78125,3.125 0,1.09375 -0.78125,1.71875 -0.78125,0.46875 -1.71875,0.46875 l 0,2.34375 22.1875,0 0,-2.8125 q -2.5,-0.625 -3.75,-2.96875 l -25.3125,-53.125 -0.78125,-1.71875 q -1.40625,-2.65625 -1.40625,-3.59375 0,-1.09375 1.25,-1.5625 0.15625,-0.15625 0.3125,-0.15625 l 0,-2.8125 -23.59375,0 0,2.8125 0.15625,0.15625 q 1.09375,0.46875 1.09375,1.5625 0,1.5625 -1.875,5.9375 l -0.15625,0.15625 -23.28125,50.78125 q -0.78125,1.71875 -2.03125,3.125 -1.09375,1.25 -2.8125,1.40625 l 0,2.8125 20.9375,0 z m 18.59375,-55 12.65625,26.25 -23.75,0 11.09375,-26.25 z" />
        <path
           id="path4358"
           style="font-style:normal;font-variant:normal;font-weight:normal;font-stretch:normal;font-size:156.25px;line-height:62.99999952%;font-family:CopperplateGothicThirty-OneBC;-inkscape-font-specification:CopperplateGothicThirty-OneBC;text-align:center;letter-spacing:-11.93999958px;word-spacing:-0.30000001px;text-anchor:middle"
           d="m 282.69113,648.03736 q 0,1.09375 -1.09375,1.71875 -1.09375,0.625 -2.5,0.625 l 0,2.8125 47.96875,0 q 13.125,0 19.375,-5.15625 6.25,-5.15625 6.25,-13.125 0,-6.25 -3.59375,-10.78125 -3.59375,-4.53125 -8.59375,-6.5625 l 0,-0.15625 q 4.0625,-2.1875 7.1875,-6.25 3.125,-4.21875 3.125,-9.375 0,-7.34375 -6.09375,-12.34375 -5.9375,-5 -17.03125,-5 l -48.59375,0 0,2.8125 q 1.40625,0 2.5,0.625 1.09375,0.625 1.09375,1.71875 l 0,58.4375 z m 15,-24.84375 25,0 q 7.96875,0 11.40625,2.34375 3.59375,2.34375 3.59375,7.1875 0,4.375 -2.8125,6.71875 -2.8125,2.1875 -9.6875,2.1875 l -27.5,0 0,-18.4375 z m 0,-27.1875 27.8125,0 q 4.6875,0 7.5,1.5625 2.8125,1.5625 2.8125,6.09375 0,4.375 -2.96875,6.25 -2.96875,1.71875 -7.34375,1.71875 l -27.8125,0 0,-15.625 z" />
        <path
           id="path4360"
           style="font-style:normal;font-variant:normal;font-weight:normal;font-stretch:normal;font-size:156.25px;line-height:62.99999952%;font-family:CopperplateGothicThirty-OneBC;-inkscape-font-specification:CopperplateGothicThirty-OneBC;text-align:center;letter-spacing:-11.93999958px;word-spacing:-0.30000001px;text-anchor:middle"
           d="m 358.92741,646.00611 2.1875,1.5625 q 0.78125,-0.9375 1.875,-0.9375 0.46875,0 3.75,1.25 7.03125,2.65625 13.75,4.53125 6.71875,1.71875 13.4375,1.71875 5.9375,0 11.71875,-1.09375 5.9375,-1.09375 10.9375,-3.59375 5.15625,-2.65625 8.28125,-7.03125 3.125,-4.53125 3.125,-10.9375 0,-5.78125 -2.96875,-9.53125 -2.8125,-3.90625 -7.5,-5.9375 -4.53125,-2.03125 -9.6875,-2.96875 -5.15625,-1.09375 -12.65625,-2.1875 -9.84375,-1.25 -14.53125,-2.65625 -4.53125,-1.5625 -4.53125,-5.3125 0,-4.0625 4.375,-5.9375 4.375,-1.875 11.25,-1.875 7.8125,0 14.375,1.875 6.71875,1.71875 10,4.53125 1.40625,1.09375 1.71875,3.4375 l 0,0.3125 2.8125,0.9375 7.8125,-14.6875 -1.71875,-1.71875 -0.78125,0.46875 q -1.40625,0.78125 -2.65625,0.78125 -0.78125,0 -3.90625,-1.40625 -5.625,-2.65625 -11.71875,-4.375 -5.9375,-1.71875 -15,-1.71875 -14.6875,0 -23.125,5.9375 -8.4375,5.9375 -8.4375,15.9375 0,5.46875 2.8125,9.21875 2.8125,3.59375 7.34375,5.625 4.6875,1.875 9.53125,2.96875 5,0.9375 12.65625,1.875 10.15625,1.40625 14.84375,2.96875 4.6875,1.40625 4.6875,5.3125 0,2.8125 -2.03125,4.6875 -2.03125,1.875 -5.15625,2.8125 -2.96875,0.9375 -6.09375,1.40625 -3.125,0.3125 -5.9375,0.3125 -2.5,0 -6.875,-0.78125 -4.21875,-0.78125 -8.28125,-2.1875 -4.0625,-1.40625 -6.875,-3.28125 -2.8125,-2.03125 -2.8125,-4.21875 0,-0.625 0.15625,-1.5625 0,-1.09375 0,-1.25 l -2.96875,-0.78125 -7.1875,17.5 z" />
      </g>
    </g>
  </g>
</svg>
